<mxfile host="app.diagrams.net" modified="2024-03-12T22:08:47.942Z" agent="Mozilla/5.0 (Macintosh; Intel Mac OS X 10_15_7) AppleWebKit/537.36 (KHTML, like Gecko) Chrome/122.0.0.0 Safari/537.36" etag="4fUJS6j39L-NvKyyFyrt" version="24.0.5" type="github">
  <diagram name="Page-1" id="bN1dnMpVhY6AOlyWJUOW">
    <mxGraphModel dx="1306" dy="730" grid="1" gridSize="10" guides="1" tooltips="1" connect="1" arrows="1" fold="1" page="1" pageScale="1" pageWidth="850" pageHeight="1100" background="#ffffff" math="0" shadow="0">
      <root>
        <mxCell id="0" />
        <mxCell id="1" parent="0" />
        <mxCell id="SUlUQNfAXoXzCGXjiVM7-33" value="&lt;font style=&quot;font-size: 16px;&quot;&gt;HTTP/REST API&lt;/font&gt;" style="rounded=1;whiteSpace=wrap;html=1;fillColor=#dae8fc;strokeColor=#6c8ebf;" vertex="1" parent="1">
          <mxGeometry x="120" y="190" width="560" height="70" as="geometry" />
        </mxCell>
        <mxCell id="SUlUQNfAXoXzCGXjiVM7-35" value="&lt;font style=&quot;font-size: 16px;&quot;&gt;Applications&lt;/font&gt;" style="rounded=1;whiteSpace=wrap;html=1;fillColor=#dae8fc;strokeColor=#6c8ebf;" vertex="1" parent="1">
          <mxGeometry x="120" y="100" width="560" height="80" as="geometry" />
        </mxCell>
        <mxCell id="SUlUQNfAXoXzCGXjiVM7-37" value="" style="rounded=1;whiteSpace=wrap;html=1;fillColor=#dae8fc;strokeColor=#6c8ebf;" vertex="1" parent="1">
          <mxGeometry x="220" y="280" width="170" height="240" as="geometry" />
        </mxCell>
        <mxCell id="SUlUQNfAXoXzCGXjiVM7-36" value="Memorial&lt;div&gt;Matrix&lt;/div&gt;&lt;div&gt;Database&lt;/div&gt;" style="shape=datastore;whiteSpace=wrap;html=1;fillColor=#1ba1e2;strokeColor=#006EAF;fontColor=#ffffff;" vertex="1" parent="1">
          <mxGeometry x="240" y="390" width="130" height="120" as="geometry" />
        </mxCell>
        <mxCell id="SUlUQNfAXoXzCGXjiVM7-38" value="Encryption" style="sketch=0;outlineConnect=0;fontColor=#232F3E;gradientColor=none;fillColor=#DD344C;strokeColor=none;dashed=0;verticalLabelPosition=bottom;verticalAlign=top;align=center;html=1;fontSize=12;fontStyle=0;aspect=fixed;pointerEvents=1;shape=mxgraph.aws4.data_encryption_key;" vertex="1" parent="1">
          <mxGeometry x="292" y="300" width="26" height="32.71" as="geometry" />
        </mxCell>
        <mxCell id="SUlUQNfAXoXzCGXjiVM7-39" value="Security IAM" style="points=[[0,0.5,0],[0.24,0,0],[0.5,0.28,0],[0.995,0.475,0],[0.5,0.72,0],[0.24,1,0]];verticalLabelPosition=bottom;sketch=0;html=1;verticalAlign=top;aspect=fixed;align=center;pointerEvents=1;shape=mxgraph.cisco19.key;fillColor=#005073;strokeColor=none;" vertex="1" parent="1">
          <mxGeometry x="177" y="377.5" width="50" height="22.5" as="geometry" />
        </mxCell>
        <mxCell id="SUlUQNfAXoXzCGXjiVM7-41" value="" style="rounded=1;whiteSpace=wrap;html=1;fillColor=#dae8fc;strokeColor=#6c8ebf;" vertex="1" parent="1">
          <mxGeometry x="120" y="282" width="80" height="78" as="geometry" />
        </mxCell>
        <mxCell id="SUlUQNfAXoXzCGXjiVM7-43" value="&lt;div style=&quot;&quot;&gt;&lt;br&gt;&lt;/div&gt;" style="rounded=1;whiteSpace=wrap;html=1;fillColor=#dae8fc;strokeColor=#6c8ebf;align=center;" vertex="1" parent="1">
          <mxGeometry x="120" y="430" width="80" height="80" as="geometry" />
        </mxCell>
        <mxCell id="SUlUQNfAXoXzCGXjiVM7-44" value="&lt;font style=&quot;font-size: 10px;&quot;&gt;Roles&lt;/font&gt;" style="sketch=0;outlineConnect=0;fontColor=#232F3E;gradientColor=none;fillColor=#DD344C;strokeColor=none;dashed=0;verticalLabelPosition=bottom;verticalAlign=top;align=center;html=1;fontSize=12;fontStyle=0;aspect=fixed;pointerEvents=1;shape=mxgraph.aws4.role;" vertex="1" parent="1">
          <mxGeometry x="138" y="462.59000000000003" width="44" height="24.82" as="geometry" />
        </mxCell>
        <mxCell id="SUlUQNfAXoXzCGXjiVM7-45" value="&lt;font style=&quot;font-size: 10px;&quot;&gt;Permissions&lt;/font&gt;" style="outlineConnect=0;dashed=0;verticalLabelPosition=bottom;verticalAlign=top;align=center;html=1;shape=mxgraph.aws3.permissions_2;fillColor=#D2D3D3;gradientColor=none;" vertex="1" parent="1">
          <mxGeometry x="143.75" y="305.71" width="33.25" height="27" as="geometry" />
        </mxCell>
        <mxCell id="SUlUQNfAXoXzCGXjiVM7-47" value="Users" style="text;html=1;align=center;verticalAlign=middle;whiteSpace=wrap;rounded=0;" vertex="1" parent="1">
          <mxGeometry x="130" y="282" width="60" height="20" as="geometry" />
        </mxCell>
        <mxCell id="SUlUQNfAXoXzCGXjiVM7-48" value="Admins" style="text;html=1;align=center;verticalAlign=middle;whiteSpace=wrap;rounded=0;" vertex="1" parent="1">
          <mxGeometry x="130" y="440" width="60" height="20" as="geometry" />
        </mxCell>
        <mxCell id="SUlUQNfAXoXzCGXjiVM7-49" value="" style="rounded=1;whiteSpace=wrap;html=1;fillColor=#dae8fc;strokeColor=#6c8ebf;" vertex="1" parent="1">
          <mxGeometry x="120" y="540" width="560" height="80" as="geometry" />
        </mxCell>
        <mxCell id="SUlUQNfAXoXzCGXjiVM7-50" value="&lt;font style=&quot;font-size: 16px;&quot;&gt;Data Integration and APIs&lt;/font&gt;" style="shape=doubleArrow;whiteSpace=wrap;html=1;fillColor=#9cc0f2;strokeColor=#6c8ebf;fillStyle=auto;arrowWidth=0.5454545454545454;arrowSize=0.25097669405900574;" vertex="1" parent="1">
          <mxGeometry x="220" y="550" width="371.15" height="55" as="geometry" />
        </mxCell>
        <mxCell id="SUlUQNfAXoXzCGXjiVM7-51" value="Config" style="outlineConnect=0;dashed=0;verticalLabelPosition=bottom;verticalAlign=top;align=center;html=1;shape=mxgraph.aws3.config;fillColor=#759C3E;gradientColor=none;" vertex="1" parent="1">
          <mxGeometry x="630" y="547" width="36.5" height="36" as="geometry" />
        </mxCell>
        <mxCell id="SUlUQNfAXoXzCGXjiVM7-52" value="API Gateway" style="outlineConnect=0;dashed=0;verticalLabelPosition=bottom;verticalAlign=top;align=center;html=1;shape=mxgraph.aws3.api_gateway;fillColor=#D9A741;gradientColor=none;" vertex="1" parent="1">
          <mxGeometry x="150" y="545" width="35" height="40" as="geometry" />
        </mxCell>
        <mxCell id="SUlUQNfAXoXzCGXjiVM7-54" value="App Config" style="image;aspect=fixed;html=1;points=[];align=center;fontSize=12;image=img/lib/azure2/integration/App_Configuration.svg;imageBackground=default;labelBackgroundColor=#dae8fc;" vertex="1" parent="1">
          <mxGeometry x="630" y="110" width="26.5" height="28.16" as="geometry" />
        </mxCell>
        <mxCell id="SUlUQNfAXoXzCGXjiVM7-57" value="App" style="image;aspect=fixed;html=1;points=[];align=center;fontSize=12;image=img/lib/azure2/app_services/App_Services.svg;labelBackgroundColor=#dae8fc;" vertex="1" parent="1">
          <mxGeometry x="259.68" y="111.36999999999999" width="23.25" height="23.25" as="geometry" />
        </mxCell>
        <mxCell id="SUlUQNfAXoXzCGXjiVM7-58" value="App" style="image;aspect=fixed;html=1;points=[];align=center;fontSize=12;image=img/lib/azure2/app_services/App_Services.svg;labelBackgroundColor=#dae8fc;" vertex="1" parent="1">
          <mxGeometry x="309.68" y="111.36999999999999" width="23.25" height="23.25" as="geometry" />
        </mxCell>
        <mxCell id="SUlUQNfAXoXzCGXjiVM7-64" value="IAM" style="outlineConnect=0;dashed=0;verticalLabelPosition=bottom;verticalAlign=top;align=center;html=1;shape=mxgraph.aws3.iam;fillColor=#759C3E;gradientColor=none;" vertex="1" parent="1">
          <mxGeometry x="133" y="108" width="20" height="30" as="geometry" />
        </mxCell>
        <mxCell id="SUlUQNfAXoXzCGXjiVM7-66" value="Encrypted&#xa;data" style="sketch=0;outlineConnect=0;fontColor=#232F3E;gradientColor=none;strokeColor=#232F3E;fillColor=#ffffff;dashed=0;verticalLabelPosition=bottom;verticalAlign=top;align=center;html=1;fontSize=12;fontStyle=0;aspect=fixed;shape=mxgraph.aws4.resourceIcon;resIcon=mxgraph.aws4.encrypted_data;" vertex="1" parent="1">
          <mxGeometry x="177" y="110.83" width="26.5" height="26.5" as="geometry" />
        </mxCell>
        <mxCell id="SUlUQNfAXoXzCGXjiVM7-70" value="App" style="image;aspect=fixed;html=1;points=[];align=center;fontSize=12;image=img/lib/azure2/app_services/App_Services.svg;labelBackgroundColor=#dae8fc;" vertex="1" parent="1">
          <mxGeometry x="502.33000000000004" y="111.36999999999999" width="23.25" height="23.25" as="geometry" />
        </mxCell>
        <mxCell id="SUlUQNfAXoXzCGXjiVM7-71" value="App" style="image;aspect=fixed;html=1;points=[];align=center;fontSize=12;image=img/lib/azure2/app_services/App_Services.svg;labelBackgroundColor=#dae8fc;" vertex="1" parent="1">
          <mxGeometry x="552.33" y="111.36999999999999" width="23.25" height="23.25" as="geometry" />
        </mxCell>
        <mxCell id="SUlUQNfAXoXzCGXjiVM7-72" value="SSL/TLS" style="outlineConnect=0;dashed=0;verticalLabelPosition=bottom;verticalAlign=top;align=center;html=1;shape=mxgraph.aws3.ssl_padlock;fillColor=#D2D3D3;gradientColor=none;" vertex="1" parent="1">
          <mxGeometry x="133" y="198" width="33" height="40" as="geometry" />
        </mxCell>
        <mxCell id="SUlUQNfAXoXzCGXjiVM7-73" value="Users" style="image;aspect=fixed;perimeter=ellipsePerimeter;html=1;align=center;shadow=0;dashed=0;spacingTop=3;image=img/lib/active_directory/user_accounts.svg;" vertex="1" parent="1">
          <mxGeometry x="40" y="260" width="40" height="38.8" as="geometry" />
        </mxCell>
        <mxCell id="SUlUQNfAXoXzCGXjiVM7-79" value="Researchers" style="image;aspect=fixed;perimeter=ellipsePerimeter;html=1;align=center;shadow=0;dashed=0;spacingTop=3;image=img/lib/active_directory/user_accounts.svg;" vertex="1" parent="1">
          <mxGeometry x="40" y="333.90999999999997" width="40" height="38.8" as="geometry" />
        </mxCell>
        <mxCell id="SUlUQNfAXoXzCGXjiVM7-82" value="Data Analysts" style="image;aspect=fixed;perimeter=ellipsePerimeter;html=1;align=center;shadow=0;dashed=0;spacingTop=3;image=img/lib/active_directory/user_accounts.svg;" vertex="1" parent="1">
          <mxGeometry x="40" y="410" width="40" height="38.8" as="geometry" />
        </mxCell>
        <mxCell id="SUlUQNfAXoXzCGXjiVM7-83" value="Administrators" style="image;aspect=fixed;perimeter=ellipsePerimeter;html=1;align=center;shadow=0;dashed=0;spacingTop=3;image=img/lib/active_directory/user_accounts.svg;" vertex="1" parent="1">
          <mxGeometry x="40" y="482.59000000000003" width="40" height="38.8" as="geometry" />
        </mxCell>
        <mxCell id="SUlUQNfAXoXzCGXjiVM7-84" value="" style="image;aspect=fixed;html=1;points=[];align=center;fontSize=12;image=img/lib/azure2/management_governance/Managed_Desktop.svg;" vertex="1" parent="1">
          <mxGeometry x="192.75" y="20" width="68" height="63.2" as="geometry" />
        </mxCell>
        <mxCell id="SUlUQNfAXoXzCGXjiVM7-85" value="" style="image;html=1;image=img/lib/clip_art/computers/Laptop_128x128.png" vertex="1" parent="1">
          <mxGeometry x="310.75" y="12" width="80" height="80" as="geometry" />
        </mxCell>
        <mxCell id="SUlUQNfAXoXzCGXjiVM7-86" value="" style="image;aspect=fixed;perimeter=ellipsePerimeter;html=1;align=center;shadow=0;dashed=0;spacingTop=3;image=img/lib/active_directory/tablet_pc.svg;" vertex="1" parent="1">
          <mxGeometry x="420.75" y="26.6" width="36.5" height="50" as="geometry" />
        </mxCell>
        <mxCell id="SUlUQNfAXoXzCGXjiVM7-87" value="" style="shape=image;html=1;verticalAlign=top;verticalLabelPosition=bottom;labelBackgroundColor=#ffffff;imageAspect=0;aspect=fixed;image=https://cdn4.iconfinder.com/data/icons/smart-phones-technologies/128/iphone-color.png" vertex="1" parent="1">
          <mxGeometry x="493.08000000000004" y="26.6" width="46.5" height="46.5" as="geometry" />
        </mxCell>
        <mxCell id="SUlUQNfAXoXzCGXjiVM7-89" value="" style="shape=image;html=1;verticalAlign=top;verticalLabelPosition=bottom;labelBackgroundColor=#ffffff;imageAspect=0;aspect=fixed;image=https://cdn4.iconfinder.com/data/icons/smart-phones-technologies/128/android-phone-color.png" vertex="1" parent="1">
          <mxGeometry x="560.75" y="26.6" width="46.5" height="46.5" as="geometry" />
        </mxCell>
        <mxCell id="SUlUQNfAXoXzCGXjiVM7-91" value="" style="rounded=1;whiteSpace=wrap;html=1;fillColor=#dae8fc;strokeColor=#6c8ebf;" vertex="1" parent="1">
          <mxGeometry x="690" y="190" width="113.95" height="430" as="geometry" />
        </mxCell>
        <mxCell id="SUlUQNfAXoXzCGXjiVM7-93" value="&lt;span style=&quot;font-size: 16px;&quot;&gt;Data Exploration, Discovery and Analytics&lt;/span&gt;" style="text;html=1;align=center;verticalAlign=middle;whiteSpace=wrap;rounded=0;" vertex="1" parent="1">
          <mxGeometry x="695" y="190" width="103.95" height="80" as="geometry" />
        </mxCell>
        <mxCell id="SUlUQNfAXoXzCGXjiVM7-97" value="" style="shape=image;html=1;verticalAlign=top;verticalLabelPosition=bottom;labelBackgroundColor=#ffffff;imageAspect=0;aspect=fixed;image=https://cdn0.iconfinder.com/data/icons/maternity-and-pregnancy-2/512/173_handshake_Agreement_business_hands_partners_partnership-128.png" vertex="1" parent="1">
          <mxGeometry x="350" y="630" width="128" height="128" as="geometry" />
        </mxCell>
        <mxCell id="SUlUQNfAXoXzCGXjiVM7-101" value="Business Partners" style="text;html=1;align=center;verticalAlign=middle;whiteSpace=wrap;rounded=0;" vertex="1" parent="1">
          <mxGeometry x="384" y="630" width="60" height="30" as="geometry" />
        </mxCell>
        <mxCell id="SUlUQNfAXoXzCGXjiVM7-102" value="" style="shape=image;verticalLabelPosition=bottom;labelBackgroundColor=default;verticalAlign=top;aspect=fixed;imageAspect=0;image=https://d3js.org/logo.svg;" vertex="1" parent="1">
          <mxGeometry x="718.47" y="487.40999999999997" width="57" height="54.46" as="geometry" />
        </mxCell>
        <mxCell id="SUlUQNfAXoXzCGXjiVM7-103" value="&lt;span style=&quot;font-size: 16px;&quot;&gt;Server/Services Based or Standalone&lt;/span&gt;" style="text;html=1;align=center;verticalAlign=middle;whiteSpace=wrap;rounded=0;" vertex="1" parent="1">
          <mxGeometry x="695" y="537.5" width="103.95" height="80" as="geometry" />
        </mxCell>
        <mxCell id="SUlUQNfAXoXzCGXjiVM7-105" value="" style="shape=image;verticalLabelPosition=bottom;labelBackgroundColor=default;verticalAlign=top;aspect=fixed;imageAspect=0;image=data:image/png,iVBORw0KGgoAAAANSUhEUgAAAW8AAACJCAMAAADUiEkNAAAAwFBMVEX///8AAAABi//i4uJmZmbq6upycnI1NTWQkJBQUFChoaEAhf/n5+cAh/8Aif+9vb3ExMS3t7fS0tLw8PD29vYAgv+srKwpKSmBgYGWlpbOzs56enrd3d1sbGyJiYmcnJxaWloUFBRDQ0Pg8P8Ajv87OzsvLy+Rx//R5/8PDw9HR0deXl7l8/8iIiISEhKnp6eIwP94uf/y+f9osf+42v9Bn/8mlP+u1P+hzf9Bov/E4P9xtf/Y6v9erP8nmP+i0P/R5GcUAAANGklEQVR4nO1d60LiOhCmRUWoRRAQUVBQVERZhFW84r7/Wx2wBTqTSTJpKe5y8v0T2zT9Op170kzGwsLCwsLCwsLCwsLCwsLiL0Zv9Oy63bfXh5+eyP8Cva+aX3Rdt+jVppbx1PHozckO4LvvPz2dbcfIcyMo+pbwVHFbcyG8q5+e0jbjwUN0u8W3n57TNuPDx3y7NatRUsO4K9Dt+r9/elbbi56gTmaY/PSsthevFN+utZhp4VZU3zOL+fnT09pa0Hxb+U4LL5Q+6dqgPi18EvJd/PrpWW0xJkWBb//xpyf1j6KaLTf2zxvHzar8GMJB8aw6iYPmec4JMdg7lR4mCLg32uAktwbVPQfg8khyYA/lq3yrvWPg0BGwJzn03S8Cuscbneh2oCHS7Tj9Cn1wb7LU4cXa1NJtDpJux7mW2M3xbbfm+b7v1Z6fNjvR7UCZpttx8tJTeq+j0eMfG1fGQVZGt+Ps//TcthDVaznfzu5m59I8PSx/47DUTDpUKRyqdCSxQwbInq5vsJaCbucs8VS5aBaEibQLR4rISzHUcAeNdNk4jDXSDNnh3gAOljsvJyB9qKLbcZLLBgenZ78k128ZElUtnd3RI7WHB8bzOjq5oQfLX2SNBwtGVNPtlIlbakZgfg/ieBc51Qw65/xr7O7XVUPtyII4el4F5bzyh8Z3OhsTP79cH/7dEs8B9rUd46IQF6qbCnDGk/HKmXakS3miAuNcO9gNIYwa3KMhSrNH0AYTFM8BfO8YXxKi1NHTPcNQP1JVEkUg3PMUwTFrsBz/8X0Dy1bwikR/uRMV+Dr5PmHd1gxtnadUkmhaERf6aTX7+mECMF+9AKfo5JPgZ2DdxftcH98VlSuK0FHr3n3+SE5exxFPuMN58R3XKrLkC90BHLMU+c52DO7LcRTvbjVvNJKj5mhPP0AUx9z7xS/NQnVsSL4PzG7r27jQ2FV6JUZDYfvFATMKxwZ4OYfN8F1BYQQDEpVS6RiP5EiduarSCaTBIhynvFcnbYZvtkla4RcZfcV4cI5cOxlqpgAMwnfRKe3VvzbCN+neXu9cHJZmOCy0Lqn/UwlLOv8zyJ8cl76H2r+nJZbW4TgTEOCyVQjm1binTbzeX8XnRWz2Jvgm4tr+ELjGB2VCkRK2icj/5M5h4iV7TAyVo7wUyoffK+1qB5OpuiVwKBZ9vTbBt2Dh+sSMmzgcI/I5ou/Wp4zhgejpEwVDQgoKxGM5IAJZ9e3iWRai/9wA3wJLktD4FCefTtABgpPTkVnCXeHhiUd28CHn7MGURDSVB2+AbyTedWn0KHjW6Ej8brcUsQyuY3XwsfgduFH46YLEqFxMdLsDeOH0+UZ3XldlfZEFg64AdrIaysviAAsdjaVQHYc20WDX7FvApjp9vqHQdtRJdmTZVf8rSIZYoIKSLPDCyPLqbu0AES71UQqIbmz0U+cbVUw1tr0Cj45qXSTeejd4F3IE1DMSb3mxfAFE+EByGM5SCXY6db6h1yWzSUtAVRnNyEPxbjMujTyQqMaAaRNBuRNATNI2H2epxC6T1PmGsUz84xF5rNofjLMiFFXhYKxSEMxKErWCjBiwivn3tPmGd8ZIR0O1sQoVoBvMzNMBFR6hCBZysd/JGYygUkwUEy9B2nxD+hhSCat+K6MI3lSFfwBQllz9UvK7EiVwEiE62IGiGh7S5rthPABwjNuLX6E6YaehQTplKW4wcGI3OoGsm/jIcZaKVDlp8w00GosmYJhyi1/Bq/qLXdgC7tly/lAQ2S0BZfVpOFVGjps23zHuLKo57hZTAs+NaCSQAEhyffEr8E70vuAC0PvAMSbOs9C5hk3yndMfPgdw/MLwDOa9FeE0xiUxGHx4Bo0OIJGCXFucQJAY4ZT5BnFFm3cO8OKOiHk4l3k2wHMKvZ0KaPAyaJsEnEI2cCNsXzJEynwDZcz0u0DIE6p86BvERejtQHNpcDeADRjLoLoT0VoSIGW+AU8M73sOYM1CihiNWQyEDxz4OvcmtyOlFGeppBovZb4Bd8wmPPBOhM6avuGMg9DOghdInWVEALnWCFu4EVY+6Dr4fnh963a7z6Oe+C/AN9PMUXyze7OUCG8AOImM7rkVQAZ+5W3hUpHC5UnO9/h37XsTt6Jf+xJ2/4nDN4gbQr713ZkchDwAX96oDxNkcZd84x4NVforMd/v3dUy+6KHl3vH4RuYs7XyHUZ8QDkZdRqDJ7XM7eC6k6qxMynf70WwBhkvQP4/8I3r/Eq3ICHfV3gPidor+P9fyTdgjZ2KkbGFlbfa4UnI95uwhQTc0WBdfK/HXoZ8r9deIm2iqV0k4/sdbwjpuv5H9IB18b0efzDM6YEw0cgfBFFNwBYWb03tIhnfv4ktabrRVd/r4huI5OBsLx7ClAegqM2bVIDoiWGDI2po1r0uyfieiHS7XtQNXxffwCe/443Du4BJPA+yQaFygnTLNn5YIhHfVwTdrhe1mOviG1KUcGUu9JcNFvuBwDRgAxb665oBEvL9KW64NFPgt5Ej1sV3FWhO87ViEOZFkABtcWawn0D/7P4RvmHqOelCOeDtyDKnImBzTOB+A8PS1o+RiO8HYodZ13uJHLE2vkGCUJrtZAJmd9mLoGBWalecFyPXmMxefhEC7qdhL5Hbpetl0wBWdplpeVR4Cs0lfAZ6OUi2Pu2R2oKzG9mYZm18ZzrRX+txdyQIAde3MM0vrJgNqR9z2qEA38brXcUd2eeo/V664HO+O9f9fu5XUr5hxMMsXcgAWWKWn8ETXzwk1PDo1HNKXINBFr/Wl7eji+dHJOH+ZCHi5ZuLYBeRytG+tDsegeYbFQiTuYSon40lCDCFs0xxx1jiJmJZe9bmBykNPk/MhlF99L2vMq0czTfqzaP79yCa/WjluB39F8p/MdQTap5aPiLcgBwLtFRRfI8nURW+Ss763dhfHpDwjUrG+t1x0EoD0L+AlqaQ66kAUAPzqrWj2klGNbxLfb1hPK0tSfa+piv94o0CLT7+fPrz9GmwlZ6Eb9x8qm1tRok7qIGQgLc1hOOsVCTiMlmAL4MB35nM0/P3jnl+bfKYybysRNybzDzD3u9uzfO82uSDvVG7jG/cy66RcOXaFGHtVU6p7PClQYxEL+M0ghHfmczVn8eP0Wvgd4+fVztE+o8jb6FufKHWJoOMb2H1pWyTyjkq2I5hARZWXyqMpnAsTLqydweRwpBviFd3pcWjyt174ykVKd/Iq5jhQqYGhJ26RN9IWBXakvg8R8IyYxwhiUtHDZGI78zVm1iG+Gaf97UkKd9El9VgSMh49Vhw0ggXG69Qm+GcCO1PRTLFLGDSdqRkfGcytx7pJvJUipxvqsxzt3MI5LJSanWEgwbUe0AZuv4xoPxon3KviaeSVe40qEVSvjNXz3TkydmuXcG30HoQ4C6/PzyeoXAi2fGBTklJiqL5k2CwPYlepsO2yjBB5MOPd6R4JHO1HAFX8Z0ht5LQQdYQEsuzkOfLq0elckGNIZh/I/z1YjnBBP2DPUrAOZ+nUvIdZ4sYuecRYwMUo/qyiGT5KhU+KY3C+XyPku9M1VjCVdkRY7Vr1K5CIL3+WPLzPSA5LoGab9Pen4G6nMDbyHAJg5UVNNLjm/z8Gud7jjq+jSJoXaBu1Ml/nXxH1/T4fkpLvmezYu+HxXj9K+xoJWHS/Rvp8X1FeoQMh1DPN1fEW7wMcIm1CVl7DdsVp6pPCIeQ9TkwDt+Z6oWWpHv+DslDbQokn1hzB0iL7/GUEm/vVn8mj+951K7UKidmm+YfKnd+3DPa3FqFlPh+cqlKsutxzq3stJbYUbb2ZBuSzTb3Ymxxf1CQeJo75YTV6ShS4Xs8pRNWtRf9uYaolPbzN5F1v4Pr1nFsYayWGm042P3QcBdqHdLg+6lLCnd6X1/bbR4FaB4kF8XVYNk1yvUCJnzzPqgx/ojU1KJKvGY/dqflG9TtZBXD8cvH89fX9PU7Vo+sn/K77y/FMDNb9KJtQP9faPgGhTtJ8PBY9PziDF5tejUerTS3N//e2vj1uVusFSdvf1K+kX8EGr5BXYpM/H6uvmg380m+VsLtLozjw9Xnlf3SXYizQX2Jgcg3yJ9RprrnkpUct8YsVlpEAVtmiOh4XCTp9l2rPuIAJs+IA6Z0WPNmvyYYC6ATgHC/6ZoCWvNqwQUsqBJN7h/UJ+qfrXDHA6pfE+0w5HpAduOaRQSVY5SjJDb1eCCVtzWVZiifnJ+3xMo1Ee3o16dZ6EHXY6kWJcv3OkC3HVHBvH49oIUeJN/0qtAJIeAeoyRsEQHJN92rOyL8QU4LlUUEFN+SKgdRg2e31VuEIPiWFpWIDVA2OdWtgMB3Tr7twbiLNDingcoCAPOt7Ah9AOsBrXMSA4DvunSJTIiH51VFx3dtzcwcy3inft/gtBa8dmvzeprveR+2xhADp/PlFMNSc5fdDtB7nE6noyfLtoWFhYWFhYWFhYWFhYXFX43/AGWK5EXa3ufMAAAAAElFTkSuQmCC;" vertex="1" parent="1">
          <mxGeometry x="702.5" y="282" width="88.95" height="33.21" as="geometry" />
        </mxCell>
        <mxCell id="SUlUQNfAXoXzCGXjiVM7-106" value="" style="shape=image;verticalLabelPosition=bottom;labelBackgroundColor=default;verticalAlign=top;aspect=fixed;imageAspect=0;image=data:image/png,iVBORw0KGgoAAAANSUhEUgAAASwAAACoCAMAAABt9SM9AAAA/FBMVEX///8AQoEAOXwALHcAKnb/jAAAMHgANHoAOn3R1+EAPn8AM3qxvM7oAB7a3+cAPH7h5ewthpnm6/B4i6z/dh3/bwD/1MCEl7T/cxDz9fj/2b3/3saQoLv3vcG7xNT0pqojT4joABj/07NMXI9Ma5j73Nxnf6RNXY8qfZcAJXTGz9s+hZ11qLVWZZSlssfnAACFsbyxzNNQj6X/khmdu8gAHnL/fjH+x7XpHDJUcJtIkaJpoa//wZI4XI86ToeerMP/gQABfJEAc4/B1twvV43/uoQAEG0AA2v/6dqSssFtg6f9mWtVl6ekw8z/ZQD9j1r/8+7+rYrykZXwfYR/qqd6AAAG30lEQVR4nO2aC1vaSBSGycXcuARBpdnFlBYaBG16U9fUIrV1rXXXrtv9//9lZ5IMJpNJAJGC7ff2KUw4YTLzMnOSSSyVAAAAAAAAAAAAAAAAAAAAAAAAAAAAAAAAAAAAAAAAAAAAAAAAAAAAMBPOwc2qm/B4aGy+XnUTHg+QNQeQNQeQNSMNwufNA/rWWHVb1pLnHz/+Hhcb55uE9+/p6ymLf9rbX1HL1pDfNjaYLOcN4eb9KX37zOJ7+29X1LI1JCErxOFyFmQl4GXxCR6yEkDWHEDWHGRknR+k4usiy+yMLtqrbsTvnCyetZGlWnprZUd/txHxjhU2UuGbT3sh+/v7UeHT55yKfgymJslrK+sN1ZRkb8myavV60bJhtbKeR/y5sfEhLqbCtcOI/f23cWm5K6D6pTIICuKrlRXDJ3ieWXNW44t6dL1AO+qKZHgF8Z9LFulsc4F2PEpZx8dbO8ltyErAy3qytQ1ZeUDWHEDWDLz56oTvs8pyz86covp+alkHm1Hfrz58uEp+zsv6+vUwfHe73QVlOW672RrXSq0g6GWjRJbtlUy/3Wy7om/nyyLfafvD/OPGddZ7Qc/n2myaJrt6dEi5nlcFk8XDy2IsKsu5HpR1WdbV0YVhDbJxIkuSyhrdRVMFVvJkVSQl/I7uC4K03VG8rAS6VeZW4pUjbcDqHJJybvt/sKyGLEsRFvmvZncIZTF0KXOsHFne5GuaYLiWSk3ViuO2JMm8LP3uo2HRNH8YWU6DQTpjX99t8vvppM22ppJ/RbJkTdHDPWyJj4tlBTqxX1YVhbzrgtVSS6PqlbJGd7iXLNoZ53SzluzU1dZxxNYWKx3/xfYfDofmuN8dUtLGWkdKDG2VzTaUL9whPYPMscCkne7p+bLaNdrsEe05P0qFslzyJaNDcpxTKZNaM8muNqAufdLmRtu4n6zTuyde58zW1fYWz5N/4ph/1u12+y9fktfuWXrMtHVJCGejPkh0P7BzZNlsIlG1A24cC2XRH6g36ax1wccDOvfiioble8m6eU34+/3rw8ObG9akq2/bEdRSXGSyKkQUo8vJGugMmo4mG5fpI7ZlyepMemBNk1WiQ4tL2CJZQzKwZLbRIT8RP/vJb6Sx4XZPWSFczrr9I4a4+jcupnIXyVmCWswKY6xLVuCyLa6nPUvSx2xj+sgqtWSSALkjCTpDxrU18mNGllR2M9+RbLbxgLImLOVseGFJmsk2RtNHFumYNUrHRbI8OzGarexoJInMnmT9RyOLTFFlMkXEshpJWWY2AYlkkQktyeU7BtwObjnRJoEsN/ERLU+VdfvixW3yc15WrVaLKltQllZjG2JZDi+Lu2zKkSW33QRmOk5GljGZzW5W1nBWWafnUd93X716mvycl3WpRJc8C60NU/lkBlkkAfILRZGsppGZeSlSZ8jknGPxWWUxdqvVQllqfBqr+UXNmiKLJuxJ8ugIr7NSsohPneuYSBbpf/ZyIdmmQeIMSXbm6xwmBNHwuDSFWWVNo1DWUCVJiw0tKis7SJOyKuQsNuBWtSJZDr00qBQ0ikifnCioDe73JiNvckzye66JrNKInLfUuC3lvJHF+tUmam1+7SK8KG3qd9WWnHGmsy6pSR5F2v2sLHodpka51CFLV5VLeVl4Wd+2vy1BFp0Qkq73PC+gF/iCuw5ElmSpIy/oaXS9p/FjT7w2pMtyXb5utVteR1WycY/WpXY8zxvJ2UuLUouENb9RclxSkT3KfJ2Hl7Wzs5M6Oz6MrJKpGnRtYttWniw1vCUR7SCXM7eWxLIcid7MMGRZpks/QYIOlKjWsFo9M2UvynSdrapEmmEUnsBCeFk8DySr5HgD3bBIDrENXbEEO+iKbtiWReOD62y78+5nkWqjmzC2fiTKOb6uydSUZejaZfa2YmtQJmF6zKDI1YuIp9Xq97iYCjdqIXVN6tSjYrH46Q9ZHd/rjTqdXtOvCeN1/7pH8XzRkXLvlDbGPVlVVTsY5zwyH7Z6nU5n5LWHonqdStMLgmu/+Hn7ybOQ6slJNSq9SoXHR1oIvZ4MORLe7U0clVC8x0IU34Nf5pEpJ8+qISfEVsizVHhuWUtmtY/CdiO+V0/+i4up8LzTcNmYl8rRIk+PHgQ+wVde9lPxWRP8snHqxX+S9EPIyOqepeLrImstyMjqp2/yQVYCyJoDyJqDhCx6AqyP+93w3MfikJUgcfNvnHzkxS4ULrXM885fl9vdXbbO8bv9Pn3qRV77E1muW/A3F786fM4CBUDWHEDWHEDWHPDLHVCAmb3tDwAAAAAAAAAAAAAAAAAAAAAAAAAAAAAAAAAAAAAAAAAAAAAAAAAAgF+Q/wGL5ssktENynQAAAABJRU5ErkJggg==;" vertex="1" parent="1">
          <mxGeometry x="696.97" y="334" width="100" height="56" as="geometry" />
        </mxCell>
      </root>
    </mxGraphModel>
  </diagram>
</mxfile>
